<svg xmlns="http://www.w3.org/2000/svg" style="display:none"><symbol id="i-star" viewBox="0 0 24 24" fill="none" stroke="currentColor" stroke-width="2" stroke-linecap="round" stroke-linejoin="round"><path d="M12 3.5 l2.5 5.4 5.9.7-4.4 4 1.2 5.8-5.2-2.9-5.2 2.9 1.2-5.8-4.4-4 5.9-.7z" fill="currentColor" stroke="none"/></symbol><symbol id="i-gear-currency" viewBox="0 0 24 24" fill="none" stroke="currentColor" stroke-width="2" stroke-linecap="round" stroke-linejoin="round"><circle cx="12" cy="12" r="3.2"/><path d="M12 2.8v2.4M12 18.8v2.4M2.8 12h2.4M18.8 12h2.4M5.5 5.5l1.7 1.7M16.8 16.8l1.7 1.7M18.5 5.5l-1.7 1.7M7.2 16.8l-1.7 1.7"/></symbol><symbol id="i-heart" viewBox="0 0 24 24" fill="none" stroke="currentColor" stroke-width="2" stroke-linecap="round" stroke-linejoin="round"><path d="M12 20s-7.5-4.6-9.3-9.2C1.6 7.7 3.8 4.5 7 4.5c2 0 3.6 1.1 5 3 1.4-1.9 3-3 5-3 3.2 0 5.4 3.2 4.3 6.3C19.5 15.4 12 20 12 20z"/></symbol><symbol id="i-unit-arrow" viewBox="0 0 24 24" fill="none" stroke="currentColor" stroke-width="2" stroke-linecap="round" stroke-linejoin="round"><path d="M5 19 L19 5 M19 5 h-6 m6 0 v6"/></symbol><symbol id="i-wind-ribbon" viewBox="0 0 24 24" fill="none" stroke="currentColor" stroke-width="2" stroke-linecap="round" stroke-linejoin="round"><path d="M3 8 q4-3 8 0 t8 0 M3 13 q4-3 8 0 t8 0 M3 18 q4-3 8 0 t8 0"/></symbol><symbol id="i-machine-chip" viewBox="0 0 24 24" fill="none" stroke="currentColor" stroke-width="2" stroke-linecap="round" stroke-linejoin="round"><rect x="6" y="6" width="12" height="12" rx="2.5"/><rect x="10" y="10" width="4" height="4"/><path d="M9 3v3M15 3v3M9 18v3M15 18v3M3 9h3M3 15h3M18 9h3M18 15h3"/></symbol><symbol id="i-lever" viewBox="0 0 24 24" fill="none" stroke="currentColor" stroke-width="2" stroke-linecap="round" stroke-linejoin="round"><path d="M7 21 h10 M12 21 V9 M12 9 L17 4"/><circle cx="18" cy="3.4" r="1.8" fill="currentColor" stroke="none"/></symbol><symbol id="i-turret" viewBox="0 0 24 24" fill="none" stroke="currentColor" stroke-width="2" stroke-linecap="round" stroke-linejoin="round"><path d="M6 21 h12 M8 21 v-5 a4 4 0 0 1 8 0 v5 M12 12 V4 m0 0 l-2.5 2.5 M12 4 l2.5 2.5"/></symbol></svg>